<svg id="Layer_1_copy" data-name="Layer 1 copy" xmlns="http://www.w3.org/2000/svg" viewBox="0 0 647.57 205.81"><defs><style>.cls-1{fill:#fff;}.cls-2{fill:#ed1c24;}</style></defs><path class="cls-1" d="M111.22,122.56H83.71C71.5,122.56,70,121,70,108.81V81.29h6.88v27.52c0,2.79,0,5.66.31,6.56.9.32,3.78.32,6.57.32h27.51c2.79,0,5.67,0,6.57-.32.31-.9.31-3.77.31-6.56V95.05c0-2.79,0-5.67-.31-6.57-.9-.31-3.78-.31-6.57-.31H80.27V81.29h31c12.22,0,13.76,1.55,13.76,13.76v13.76C125,121,123.44,122.56,111.22,122.56Z"/><path class="cls-1" d="M173.13,122.56H145.62c-12.22,0-13.76-1.54-13.76-13.75V81.29h6.88v27.52c0,2.79,0,5.66.31,6.56.9.32,3.78.32,6.57.32h27.51c2.79,0,5.67,0,6.57-.32.31-.9.31-3.77.31-6.56V95.05c0-2.79,0-5.67-.31-6.57-.9-.31-3.78-.31-6.57-.31H142.18V81.29h30.95c12.21,0,13.76,1.55,13.76,13.76v13.76C186.89,121,185.34,122.56,173.13,122.56Z"/><path class="cls-1" d="M339.74,123H298.47c-12.21,0-13.75-1.54-13.75-13.76V81.68h6.87v27.51c0,2.79,0,5.67.32,6.57.9.31,3.77.31,6.56.31h41.27Z"/><rect class="cls-1" x="295.03" y="81.68" width="44.71" height="6.88"/><rect class="cls-1" x="295.03" y="98.87" width="44.71" height="6.88"/><rect class="cls-1" x="408.15" y="81.29" width="6.88" height="82.54"/><path class="cls-1" d="M449.42,122.56h-31v-6.87h31c2.78,0,5.66,0,6.56-.32.31-.9.31-3.77.31-6.56V95.05c0-2.79,0-5.67-.31-6.57-.9-.31-3.78-.31-6.56-.31h-31V81.29h31c12.21,0,13.75,1.55,13.75,13.76v13.76C463.17,121,461.63,122.56,449.42,122.56Z"/><rect class="cls-1" x="470.05" y="81.29" width="6.88" height="41.27"/><rect class="cls-1" x="483.81" y="81.29" width="6.88" height="41.27"/><path class="cls-1" d="M537.42,123.45c-2.53,0-5.3-2.5-11.65-8.21L493.43,86.12,498,81.05l32.35,29.12c1.85,1.67,3.66,3.3,5.08,4.51,0-.65,0-1.32,0-2V83.59h6.82v29.12c0,5.79,0,9-3,10.32A4.38,4.38,0,0,1,537.42,123.45Z"/><path class="cls-1" d="M401.27,123H360c-12.22,0-13.76-1.54-13.76-13.76V81.68h6.88v27.51c0,2.79,0,5.67.31,6.57.9.31,3.78.31,6.57.31h41.27Z"/><rect class="cls-1" x="356.56" y="81.68" width="44.71" height="6.88"/><rect class="cls-1" x="356.56" y="98.87" width="44.71" height="6.88"/><rect class="cls-1" x="470.05" y="61.04" width="6.88" height="17.2"/><path class="cls-1" d="M49.32,122.56H21.8c-12.21,0-13.75-1.54-13.75-13.75V40h6.88v68.79c0,2.79,0,5.66.31,6.56.9.32,3.78.32,6.56.32H49.32c2.79,0,5.66,0,6.57-.32.31-.9.31-3.77.31-6.56V95.05c0-2.79,0-5.67-.31-6.57-.91-.31-3.78-.31-6.57-.31H18.37V81.29h31c12.21,0,13.76,1.55,13.76,13.76v13.76C63.08,121,61.53,122.56,49.32,122.56Z"/><path class="cls-1" d="M604.18,122.56H561.76c-12.21,0-13.75-1.54-13.75-13.75V95.05c0-12.21,1.54-13.76,13.75-13.76h42.42v6.88H561.76c-2.78,0-5.66,0-6.56.31-.31.9-.31,3.78-.31,6.57v13.76c0,2.79,0,5.66.31,6.56.9.32,3.78.32,6.56.32h42.42Z"/><polygon class="cls-1" points="604.18 112.25 597.3 112.25 597.3 105.37 577.81 105.37 577.81 98.49 604.18 98.49 604.18 112.25"/><path class="cls-1" d="M43.59,77.85H18.37V71H43.59c2.78,0,5.66,0,6.56-.32.31-.9.31-3.77.31-6.56V53.78c0-2.79,0-5.67-.31-6.57-.9-.31-3.78-.31-6.56-.31H18.37V40H43.59c12.21,0,13.75,1.55,13.75,13.76V64.1C57.34,76.31,55.8,77.85,43.59,77.85Z"/><rect class="cls-1" x="232.74" y="40.6" width="6.88" height="82.54"/><path class="cls-1" d="M277.4,124.15c-.19-.08-18.85-8.27-28.75-12.68-6.51-2.91-7.88-6.5-7.9-9s1.35-6.14,7.88-9.12c8.4-3.84,28.58-12.62,28.78-12.7l2.38,5.48c-.2.08-20.32,8.84-28.68,12.66-3.47,1.58-4.38,3.08-4.38,3.65s.92,2,4.36,3.58c9.88,4.41,28.52,12.59,28.71,12.67Z"/><path class="cls-2" d="M191.22,128.09c-1.3-.59,1.93-8.58,4.8-14.52,14.68-30.3,33.89-51.43,49.46-64.17,22.54-18.43,41.29-8.95,6.32,16-19.69,14-33.29,23.18-51.64,49.26C193.2,124.51,192.52,128.68,191.22,128.09Z"/><rect class="cls-2" x="204.39" y="76.45" width="9.14" height="50.1" transform="translate(-18.75 147.5) rotate(-37.33)"/><path class="cls-1" d="M623,59.67a11.69,11.69,0,0,1,8.22,20A11.16,11.16,0,0,1,623,83.06a11.7,11.7,0,0,1-8.28-20A11.31,11.31,0,0,1,623,59.67Zm0,1.61a9.51,9.51,0,0,0-7,2.94,10.23,10.23,0,0,0,0,14.27,9.49,9.49,0,0,0,7,3,9.4,9.4,0,0,0,7-3,10.24,10.24,0,0,0,0-14.26A9.39,9.39,0,0,0,623,61.28Zm-5.56,16.5V64.7h6.67q4.41,0,4.41,4.07,0,3-2,3.54a2.33,2.33,0,0,1,1.86,2.57v2.9h-2.75V75.37c0-1.23-.64-1.85-1.92-1.85h-3.51v4.26Zm2.75-6.61h3.51c1.46,0,2.19-.7,2.19-2.08a1.8,1.8,0,0,0-2-2h-3.68Z"/></svg>