<svg xmlns="http://www.w3.org/2000/svg" viewBox="0 0 750 500"><g id="freepik--background-simple--inject-133"><path d="M693.53,350.43s32.71-144.63-56.41-226.68C558.45,51.32,433.9,23.14,332.37,83c-36.17,21.34-62.5,62.78-104.76,75.58-47.38,14.36-108.3,19.49-152.3,81s-28.2,140.52,30.46,182.58,161.32,1,253.83-2.06S645,528.9,693.53,350.43Z" style="fill:#ED1B24"></path><path d="M693.53,350.43s32.71-144.63-56.41-226.68C558.45,51.32,433.9,23.14,332.37,83c-36.17,21.34-62.5,62.78-104.76,75.58-47.38,14.36-108.3,19.49-152.3,81s-28.2,140.52,30.46,182.58,161.32,1,253.83-2.06S645,528.9,693.53,350.43Z" style="fill:#fff;opacity:0.7000000000000001"></path></g><g id="freepik--Floor--inject-133"><line x1="716" y1="448.12" x2="730" y2="448.12" style="fill:none;stroke:#263238;stroke-linecap:round;stroke-linejoin:round"></line><line x1="60" y1="448.12" x2="709" y2="448.12" style="fill:none;stroke:#263238;stroke-linecap:round;stroke-linejoin:round"></line><line x1="31" y1="448.12" x2="52" y2="448.12" style="fill:none;stroke:#263238;stroke-linecap:round;stroke-linejoin:round"></line></g><g id="freepik--Graphics--inject-133"><g style="opacity:0.2"><path d="M144.25,235.12a13.23,13.23,0,1,0,13.23,13.23A13.24,13.24,0,0,0,144.25,235.12Zm1.35,21.31v1.27h-2.25v-1.27c-2-.4-3-1.92-3-4.29v-1.2H143v1.38c0,1.24.55,1.69,1.42,1.69s1.42-.45,1.42-1.69c0-3.59-5.36-3.77-5.36-8.75,0-2.34,1-3.84,2.89-4.26V238h2.25v1.3c1.94.4,2.94,1.89,2.94,4.26v.55H146v-.73c0-1.24-.5-1.72-1.37-1.72s-1.37.48-1.37,1.72c0,3.59,5.35,3.77,5.35,8.75C148.56,254.51,147.54,256,145.6,256.43Z" style="fill:none;stroke:#000;stroke-miterlimit:10"></path><path d="M144.25,229.81a18.54,18.54,0,1,0,18.53,18.54A18.54,18.54,0,0,0,144.25,229.81Zm0,33.76a15.23,15.23,0,1,1,15.23-15.22A15.24,15.24,0,0,1,144.25,263.57Z" style="fill:none;stroke:#000;stroke-miterlimit:10"></path></g><g style="opacity:0.2"><path d="M412,100.48a17.1,17.1,0,1,0,17.09,17.1A17.12,17.12,0,0,0,412,100.48ZM413.77,128v1.64h-2.9V128c-2.54-.52-3.83-2.49-3.83-5.55v-1.55h3.35v1.78c0,1.61.71,2.19,1.84,2.19s1.83-.58,1.83-2.19c0-4.64-6.93-4.87-6.93-11.32,0-3,1.26-5,3.74-5.51v-1.67h2.9v1.67c2.52.52,3.81,2.45,3.81,5.51v.71h-3.36v-.93c0-1.61-.64-2.23-1.77-2.23s-1.77.62-1.77,2.23c0,4.64,6.93,4.87,6.93,11.31C417.61,125.55,416.29,127.52,413.77,128Z" style="fill:none;stroke:#000;stroke-miterlimit:10"></path><path d="M412,93.62a24,24,0,1,0,24,24A24,24,0,0,0,412,93.62Zm0,43.65a19.69,19.69,0,1,1,19.68-19.69A19.71,19.71,0,0,1,412,137.27Z" style="fill:none;stroke:#000;stroke-miterlimit:10"></path></g><g style="opacity:0.2"><path d="M286.4,45.88a24.47,24.47,0,1,0,24.48,24.47A24.49,24.49,0,0,0,286.4,45.88Zm2.49,39.43v2.35h-4.15V85.31c-3.64-.74-5.49-3.55-5.49-7.93V75.16h4.8V77.7c0,2.31,1,3.14,2.63,3.14s2.63-.83,2.63-3.14c0-6.64-9.92-7-9.92-16.19,0-4.34,1.8-7.11,5.35-7.89v-2.4h4.15v2.4c3.6.74,5.44,3.5,5.44,7.89v1h-4.79V61.18c0-2.3-.93-3.18-2.54-3.18s-2.54.88-2.54,3.18c0,6.65,9.92,7,9.92,16.2C294.38,81.76,292.49,84.57,288.89,85.31Z" style="fill:none;stroke:#000;stroke-miterlimit:10"></path><path d="M286.4,36.05a34.3,34.3,0,1,0,34.31,34.3A34.3,34.3,0,0,0,286.4,36.05Zm0,62.48a28.18,28.18,0,1,1,28.18-28.18A28.21,28.21,0,0,1,286.4,98.53Z" style="fill:none;stroke:#000;stroke-miterlimit:10"></path></g><g style="opacity:0.2"><rect x="525.18" y="82.43" width="10" height="23" style="fill:none;stroke:#000;stroke-miterlimit:10"></rect><rect x="538.18" y="68.73" width="10" height="36.7" style="fill:none;stroke:#000;stroke-miterlimit:10"></rect><rect x="551.18" y="73.6" width="10" height="31.83" style="fill:none;stroke:#000;stroke-miterlimit:10"></rect><rect x="564.18" y="65.68" width="10" height="39.75" style="fill:none;stroke:#000;stroke-miterlimit:10"></rect><polygon points="542.9 59.23 554.54 70.86 569.71 59.57 572.15 55.32 574.74 56.82 574.73 48.84 567.83 52.84 570.42 54.33 568.18 58.21 554.73 68.23 542.61 56.11 528.23 77.2 529.88 78.33 542.9 59.23" style="fill:none;stroke:#000;stroke-miterlimit:10"></polygon></g><g style="opacity:0.2"><rect x="110.08" y="97.82" width="8.49" height="19.52" style="fill:none;stroke:#000;stroke-miterlimit:10"></rect><rect x="121.12" y="86.19" width="8.49" height="31.16" style="fill:none;stroke:#000;stroke-miterlimit:10"></rect><rect x="132.15" y="90.32" width="8.49" height="27.02" style="fill:none;stroke:#000;stroke-miterlimit:10"></rect><rect x="143.19" y="83.6" width="8.49" height="33.74" style="fill:none;stroke:#000;stroke-miterlimit:10"></rect><polygon points="125.13 78.13 135 88 147.88 78.41 149.95 74.81 152.15 76.08 152.14 69.31 146.28 72.7 148.48 73.96 146.58 77.26 135.16 85.76 124.88 75.48 112.67 93.38 114.07 94.34 125.13 78.13" style="fill:none;stroke:#000;stroke-miterlimit:10"></polygon></g><g style="opacity:0.2"><rect x="636.74" y="245.44" width="15.27" height="35.11" style="fill:none;stroke:#000;stroke-miterlimit:10"></rect><rect x="656.58" y="224.53" width="15.27" height="56.03" style="fill:none;stroke:#000;stroke-miterlimit:10"></rect><rect x="676.43" y="231.96" width="15.27" height="48.59" style="fill:none;stroke:#000;stroke-miterlimit:10"></rect><rect x="696.27" y="219.88" width="15.27" height="60.67" style="fill:none;stroke:#000;stroke-miterlimit:10"></rect><polygon points="663.79 210.03 681.55 227.78 704.71 210.54 708.43 204.06 712.39 206.34 712.37 194.17 701.84 200.27 705.79 202.54 702.38 208.47 681.84 223.76 663.35 205.26 641.39 237.46 643.91 239.18 663.79 210.03" style="fill:none;stroke:#000;stroke-miterlimit:10"></polygon></g></g><g id="freepik--Device--inject-133"><path d="M206,128.71H638.91a12.74,12.74,0,0,1,12.74,12.74V426.22a0,0,0,0,1,0,0H193.28a0,0,0,0,1,0,0V141.44A12.74,12.74,0,0,1,206,128.71Z" style="fill:#263238;stroke:#263238;stroke-linecap:round;stroke-linejoin:round"></path><rect x="266.01" y="411.9" width="315.01" height="15.52" style="fill:#263238;stroke:#263238;stroke-linecap:round;stroke-linejoin:round"></rect><rect x="266.01" y="419.37" width="315.01" height="8.05" style="fill:#fff;stroke:#263238;stroke-linecap:round;stroke-linejoin:round"></rect><path d="M156.21,436.62s5.18,6.32,20.7,11.5H670.12s11.5-2.88,16.67-10.93Z" style="fill:#263238;stroke:#263238;stroke-linecap:round;stroke-linejoin:round"></path><rect x="155.16" y="425.29" width="532.74" height="12.09" rx="3.86" style="fill:#fff;stroke:#263238;stroke-linecap:round;stroke-linejoin:round"></rect><path d="M426.39,137.7a4,4,0,1,0-4,4A4,4,0,0,0,426.39,137.7Z" style="fill:#263238"></path><path d="M197.6,212.43h0a1.15,1.15,0,0,1-1.15-1.15V177.94a1.16,1.16,0,0,1,1.15-1.15h0a1.15,1.15,0,0,1,1.15,1.15v33.34A1.14,1.14,0,0,1,197.6,212.43Z" style="fill:#263238;stroke:#fff;stroke-linejoin:round;stroke-width:0.691688px"></path><rect x="211.88" y="151.95" width="421.17" height="238.01" style="fill:#fff;stroke:#263238;stroke-linecap:round;stroke-linejoin:round"></rect><rect x="281.87" y="151.95" width="351.18" height="14.08" style="fill:#ED1B24;stroke:#263238;stroke-linecap:round;stroke-linejoin:round"></rect></g><g id="freepik--Charts--inject-133"><line x1="229.21" y1="299.21" x2="520.81" y2="299.21" style="fill:none;stroke:#ccc;stroke-linecap:round;stroke-linejoin:round"></line><line x1="229.21" y1="293.2" x2="520.81" y2="293.2" style="fill:none;stroke:#ccc;stroke-linecap:round;stroke-linejoin:round"></line><line x1="229.21" y1="287.18" x2="520.81" y2="287.18" style="fill:none;stroke:#ccc;stroke-linecap:round;stroke-linejoin:round"></line><line x1="229.21" y1="281.16" x2="520.81" y2="281.16" style="fill:none;stroke:#ccc;stroke-linecap:round;stroke-linejoin:round"></line><line x1="229.21" y1="275.14" x2="520.81" y2="275.14" style="fill:none;stroke:#ccc;stroke-linecap:round;stroke-linejoin:round"></line><line x1="229.21" y1="269.12" x2="520.81" y2="269.12" style="fill:none;stroke:#ccc;stroke-linecap:round;stroke-linejoin:round"></line><line x1="229.21" y1="263.1" x2="520.81" y2="263.1" style="fill:none;stroke:#ccc;stroke-linecap:round;stroke-linejoin:round"></line><line x1="229.21" y1="257.08" x2="520.81" y2="257.08" style="fill:none;stroke:#ccc;stroke-linecap:round;stroke-linejoin:round"></line><line x1="229.21" y1="251.06" x2="520.81" y2="251.06" style="fill:none;stroke:#ccc;stroke-linecap:round;stroke-linejoin:round"></line><line x1="229.21" y1="245.04" x2="520.81" y2="245.04" style="fill:none;stroke:#ccc;stroke-linecap:round;stroke-linejoin:round"></line><line x1="229.21" y1="239.02" x2="520.81" y2="239.02" style="fill:none;stroke:#ccc;stroke-linecap:round;stroke-linejoin:round"></line><line x1="229.21" y1="233" x2="520.81" y2="233" style="fill:none;stroke:#ccc;stroke-linecap:round;stroke-linejoin:round"></line><line x1="229.21" y1="226.98" x2="520.81" y2="226.98" style="fill:none;stroke:#ccc;stroke-linecap:round;stroke-linejoin:round"></line><line x1="229.21" y1="220.96" x2="520.81" y2="220.96" style="fill:none;stroke:#ccc;stroke-linecap:round;stroke-linejoin:round"></line><line x1="229.21" y1="214.94" x2="520.81" y2="214.94" style="fill:none;stroke:#ccc;stroke-linecap:round;stroke-linejoin:round"></line><line x1="229.21" y1="208.93" x2="520.81" y2="208.93" style="fill:none;stroke:#ccc;stroke-linecap:round;stroke-linejoin:round"></line><rect x="239.24" y="202.24" width="11.37" height="96.31" style="fill:#ED1B24"></rect><rect x="254.29" y="254.4" width="11.37" height="44.14" style="fill:#ED1B24"></rect><rect x="269.34" y="262.43" width="11.37" height="36.12" style="fill:#ED1B24"></rect><rect x="284.39" y="216.28" width="11.37" height="82.26" style="fill:#ED1B24"></rect><rect x="299.44" y="257.08" width="11.37" height="41.47" style="fill:#ED1B24"></rect><rect x="314.49" y="238.35" width="11.37" height="60.19" style="fill:#ED1B24"></rect><rect x="329.53" y="214.94" width="11.37" height="83.6" style="fill:#ED1B24"></rect><rect x="344.58" y="189.53" width="11.37" height="109.02" style="fill:#ED1B24"></rect><rect x="359.63" y="241.7" width="11.37" height="56.85" style="fill:#ED1B24"></rect><rect x="374.68" y="265.77" width="11.37" height="32.77" style="fill:#ED1B24"></rect><rect x="389.73" y="279.15" width="11.37" height="19.4" style="fill:#ED1B24"></rect><rect x="404.77" y="263.77" width="11.37" height="34.78" style="fill:#ED1B24"></rect><rect x="419.82" y="230.33" width="11.37" height="68.22" style="fill:#ED1B24"></rect><rect x="434.87" y="286.51" width="11.37" height="12.04" style="fill:#ED1B24"></rect><rect x="449.92" y="262.43" width="11.37" height="36.12" style="fill:#ED1B24"></rect><rect x="464.97" y="278.48" width="11.37" height="20.06" style="fill:#ED1B24"></rect><rect x="480.02" y="190.2" width="11.37" height="108.35" style="fill:#ED1B24"></rect><rect x="495.06" y="208.93" width="11.37" height="89.62" style="fill:#ED1B24"></rect><path d="M233.63,176.42v-.93h1.62v.93c1.4.29,2.12,1.37,2.12,3.07v.4H235.5v-.52c0-.9-.36-1.24-1-1.24s-1,.34-1,1.24c0,2.58,3.85,2.71,3.85,6.3,0,1.7-.73,2.8-2.13,3.08v.92h-1.62v-.92c-1.41-.28-2.13-1.38-2.13-3.08v-.87h1.86v1c0,.9.4,1.22,1,1.22s1-.32,1-1.22c0-2.58-3.86-2.71-3.86-6.3C231.55,177.81,232.25,176.73,233.63,176.42Z" style="fill:#263238"></path><path d="M241.6,178c-.63,0-1,.34-1,1.24v1.34h-1.87v-1.22c0-2,1-3.15,2.94-3.15s2.95,1.14,2.95,3.15c0,3.95-3.93,5.42-3.93,7.49a2.44,2.44,0,0,0,0,.27h3.74v1.79h-5.71v-1.54c0-3.7,3.91-4.31,3.91-7.93C242.62,178.25,242.23,178,241.6,178Z" style="fill:#263238"></path><path d="M245.65,179.31c0-2,1.06-3.15,3-3.15s3,1.14,3,3.15v6.54c0,2-1.06,3.15-3,3.15s-3-1.15-3-3.15Zm2,6.66c0,.9.39,1.24,1,1.24s1-.34,1-1.24v-6.78c0-.9-.39-1.24-1-1.24s-1,.34-1,1.24Z" style="fill:#263238"></path><path d="M254.82,187v1.9h-1.9V187Z" style="fill:#263238"></path><path d="M260.06,179.39c0-1.14-.4-1.44-1-1.44s-1,.34-1,1.24V180h-1.86v-.69c0-2,1-3.15,2.94-3.15s2.94,1.14,2.94,3.15v.33c0,1.34-.43,2.19-1.38,2.58a2.55,2.55,0,0,1,1.38,2.64v1c0,2-1,3.15-2.94,3.15s-2.94-1.15-2.94-3.15v-1H258V186c0,.9.4,1.24,1,1.24s1-.31,1-1.42v-1c0-1.16-.4-1.59-1.29-1.59h-.67v-1.8h.77c.74,0,1.19-.32,1.19-1.32Z" style="fill:#263238"></path><path d="M263.23,179.42c0-2.12,1-3.26,3-3.26s2.94,1.14,2.94,3.15v.33h-1.87v-.45c0-.9-.39-1.24-1-1.24s-1.1.34-1.1,1.54v2.3a1.89,1.89,0,0,1,1.84-1.11c1.45,0,2.18,1,2.18,2.87v2.3c0,2-1.05,3.15-3,3.15s-3-1.15-3-3.15Zm2,4.29V186c0,.9.4,1.22,1,1.22s1-.32,1-1.22v-2.26c0-.9-.39-1.24-1-1.24S265.2,182.81,265.2,183.71Z" style="fill:#263238"></path><path d="M273.29,189a2.82,2.82,0,0,1-3.08-3.15v-1a2.76,2.76,0,0,1,1.22-2.62,2.6,2.6,0,0,1-1.22-2.53v-.4a3.09,3.09,0,1,1,6.17,0v.4a2.63,2.63,0,0,1-1.22,2.53,2.76,2.76,0,0,1,1.22,2.62v1A2.83,2.83,0,0,1,273.29,189Zm-1.11-8.91c0,1,.47,1.32,1.11,1.32s1.12-.32,1.12-1.32v-.7c0-1.14-.49-1.44-1.12-1.44s-1.11.3-1.11,1.44Zm1.11,7.12c.63,0,1.1-.31,1.12-1.42v-1.17c0-1-.42-1.41-1.12-1.41s-1.11.43-1.11,1.41v1.17C272.18,186.9,272.67,187.21,273.29,187.21Z" style="fill:#263238"></path><path d="M277.56,188.86V187h1.91v1.7l-.87,2h-.8l.52-1.79Z" style="fill:#263238"></path><path d="M283.79,178c-.63,0-1,.34-1,1.24v1.34H280.9v-1.22c0-2,1-3.15,2.94-3.15s3,1.14,3,3.15c0,3.95-3.93,5.42-3.93,7.49a2.44,2.44,0,0,0,0,.27h3.74v1.79H280.9v-1.54c0-3.7,3.91-4.31,3.91-7.93C284.81,178.25,284.42,178,283.79,178Z" style="fill:#263238"></path><path d="M291.81,179.39c0-1.14-.4-1.44-1-1.44s-1,.34-1,1.24V180H287.9v-.69c0-2,1-3.15,2.94-3.15s2.94,1.14,2.94,3.15v.33c0,1.34-.43,2.19-1.38,2.58a2.55,2.55,0,0,1,1.38,2.64v1c0,2-1,3.15-2.94,3.15s-2.94-1.15-2.94-3.15v-1h1.86V186c0,.9.4,1.24,1,1.24s1-.31,1-1.42v-1c0-1.16-.4-1.59-1.29-1.59h-.67v-1.8h.77c.74,0,1.19-.32,1.19-1.32Z" style="fill:#263238"></path><rect x="527.39" y="177.92" width="93.13" height="121" style="fill:#263238"></rect><line x1="543.51" y1="185.35" x2="555.84" y2="185.35" style="fill:none;stroke:#757575;stroke-miterlimit:10"></line><line x1="562.78" y1="185.35" x2="575.11" y2="185.35" style="fill:none;stroke:#757575;stroke-miterlimit:10"></line><line x1="582.05" y1="185.35" x2="594.38" y2="185.35" style="fill:none;stroke:#757575;stroke-miterlimit:10"></line><line x1="601.31" y1="185.35" x2="613.64" y2="185.35" style="fill:none;stroke:#757575;stroke-miterlimit:10"></line><line x1="559.36" y1="179.73" x2="559.36" y2="297.25" style="fill:none;stroke:#fff;stroke-miterlimit:10"></line><line x1="540.07" y1="179.73" x2="540.07" y2="297.25" style="fill:none;stroke:#fff;stroke-miterlimit:10"></line><line x1="578.96" y1="179.73" x2="578.96" y2="297.25" style="fill:none;stroke:#fff;stroke-miterlimit:10"></line><line x1="598.56" y1="179.73" x2="598.56" y2="297.25" style="fill:none;stroke:#fff;stroke-miterlimit:10"></line><polygon points="534.41 182.96 532.15 186.89 536.68 186.89 534.41 182.96" style="fill:#fff"></polygon><line x1="543.51" y1="194.46" x2="555.84" y2="194.46" style="fill:none;stroke:#757575;stroke-miterlimit:10"></line><line x1="562.78" y1="194.46" x2="575.11" y2="194.46" style="fill:none;stroke:#757575;stroke-miterlimit:10"></line><line x1="582.05" y1="194.46" x2="594.38" y2="194.46" style="fill:none;stroke:#757575;stroke-miterlimit:10"></line><line x1="601.31" y1="194.46" x2="613.64" y2="194.46" style="fill:none;stroke:#757575;stroke-miterlimit:10"></line><polygon points="534.41 196 536.68 192.07 532.15 192.07 534.41 196" style="fill:#ED1B24"></polygon><line x1="543.51" y1="203.56" x2="555.84" y2="203.56" style="fill:none;stroke:#757575;stroke-miterlimit:10"></line><line x1="562.78" y1="203.56" x2="575.11" y2="203.56" style="fill:none;stroke:#757575;stroke-miterlimit:10"></line><line x1="582.05" y1="203.56" x2="594.38" y2="203.56" style="fill:none;stroke:#757575;stroke-miterlimit:10"></line><line x1="601.31" y1="203.56" x2="613.64" y2="203.56" style="fill:none;stroke:#757575;stroke-miterlimit:10"></line><polygon points="534.41 201.18 532.15 205.11 536.68 205.11 534.41 201.18" style="fill:#fff"></polygon><line x1="543.51" y1="212.67" x2="555.84" y2="212.67" style="fill:none;stroke:#757575;stroke-miterlimit:10"></line><line x1="562.78" y1="212.67" x2="575.11" y2="212.67" style="fill:none;stroke:#757575;stroke-miterlimit:10"></line><line x1="582.05" y1="212.67" x2="594.38" y2="212.67" style="fill:none;stroke:#757575;stroke-miterlimit:10"></line><line x1="601.31" y1="212.67" x2="613.64" y2="212.67" style="fill:none;stroke:#757575;stroke-miterlimit:10"></line><polygon points="534.41 214.21 536.68 210.29 532.15 210.29 534.41 214.21" style="fill:#ED1B24"></polygon><line x1="543.51" y1="221.78" x2="555.84" y2="221.78" style="fill:none;stroke:#757575;stroke-miterlimit:10"></line><line x1="562.78" y1="221.78" x2="575.11" y2="221.78" style="fill:none;stroke:#757575;stroke-miterlimit:10"></line><line x1="582.05" y1="221.78" x2="594.38" y2="221.78" style="fill:none;stroke:#757575;stroke-miterlimit:10"></line><line x1="601.31" y1="221.78" x2="613.64" y2="221.78" style="fill:none;stroke:#757575;stroke-miterlimit:10"></line><polygon points="534.41 223.32 536.68 219.4 532.15 219.4 534.41 223.32" style="fill:#ED1B24"></polygon><line x1="543.51" y1="230.89" x2="555.84" y2="230.89" style="fill:none;stroke:#757575;stroke-miterlimit:10"></line><line x1="562.78" y1="230.89" x2="575.11" y2="230.89" style="fill:none;stroke:#757575;stroke-miterlimit:10"></line><line x1="582.05" y1="230.89" x2="594.38" y2="230.89" style="fill:none;stroke:#757575;stroke-miterlimit:10"></line><line x1="601.31" y1="230.89" x2="613.64" y2="230.89" style="fill:none;stroke:#757575;stroke-miterlimit:10"></line><polygon points="534.41 232.43 536.68 228.51 532.15 228.51 534.41 232.43" style="fill:#ED1B24"></polygon><line x1="543.51" y1="240" x2="555.84" y2="240" style="fill:none;stroke:#757575;stroke-miterlimit:10"></line><line x1="562.78" y1="240" x2="575.11" y2="240" style="fill:none;stroke:#757575;stroke-miterlimit:10"></line><line x1="582.05" y1="240" x2="594.38" y2="240" style="fill:none;stroke:#757575;stroke-miterlimit:10"></line><line x1="601.31" y1="240" x2="613.64" y2="240" style="fill:none;stroke:#757575;stroke-miterlimit:10"></line><polygon points="534.41 237.61 532.15 241.54 536.68 241.54 534.41 237.61" style="fill:#fff"></polygon><line x1="543.51" y1="249.11" x2="555.84" y2="249.11" style="fill:none;stroke:#757575;stroke-miterlimit:10"></line><line x1="562.78" y1="249.11" x2="575.11" y2="249.11" style="fill:none;stroke:#757575;stroke-miterlimit:10"></line><line x1="582.05" y1="249.11" x2="594.38" y2="249.11" style="fill:none;stroke:#757575;stroke-miterlimit:10"></line><line x1="601.31" y1="249.11" x2="613.64" y2="249.11" style="fill:none;stroke:#757575;stroke-miterlimit:10"></line><polygon points="534.41 246.72 532.15 250.65 536.68 250.65 534.41 246.72" style="fill:#fff"></polygon><line x1="543.51" y1="258.22" x2="555.84" y2="258.22" style="fill:none;stroke:#757575;stroke-miterlimit:10"></line><line x1="562.78" y1="258.22" x2="575.11" y2="258.22" style="fill:none;stroke:#757575;stroke-miterlimit:10"></line><line x1="582.05" y1="258.22" x2="594.38" y2="258.22" style="fill:none;stroke:#757575;stroke-miterlimit:10"></line><line x1="601.31" y1="258.22" x2="613.64" y2="258.22" style="fill:none;stroke:#757575;stroke-miterlimit:10"></line><polygon points="534.41 259.76 536.68 255.83 532.15 255.83 534.41 259.76" style="fill:#ED1B24"></polygon><line x1="543.51" y1="267.32" x2="555.84" y2="267.32" style="fill:none;stroke:#757575;stroke-miterlimit:10"></line><line x1="562.78" y1="267.32" x2="575.11" y2="267.32" style="fill:none;stroke:#757575;stroke-miterlimit:10"></line><line x1="582.05" y1="267.32" x2="594.38" y2="267.32" style="fill:none;stroke:#757575;stroke-miterlimit:10"></line><line x1="601.31" y1="267.32" x2="613.64" y2="267.32" style="fill:none;stroke:#757575;stroke-miterlimit:10"></line><polygon points="534.41 264.94 532.15 268.87 536.68 268.87 534.41 264.94" style="fill:#fff"></polygon><line x1="543.51" y1="276.43" x2="555.84" y2="276.43" style="fill:none;stroke:#757575;stroke-miterlimit:10"></line><line x1="562.78" y1="276.43" x2="575.11" y2="276.43" style="fill:none;stroke:#757575;stroke-miterlimit:10"></line><line x1="582.05" y1="276.43" x2="594.38" y2="276.43" style="fill:none;stroke:#757575;stroke-miterlimit:10"></line><line x1="601.31" y1="276.43" x2="613.64" y2="276.43" style="fill:none;stroke:#757575;stroke-miterlimit:10"></line><polygon points="534.41 277.97 536.68 274.05 532.15 274.05 534.41 277.97" style="fill:#ED1B24"></polygon><line x1="530.9" y1="189.56" x2="618.11" y2="189.56" style="fill:none;stroke:#fff;stroke-miterlimit:10"></line><line x1="530.9" y1="198.67" x2="618.11" y2="198.67" style="fill:none;stroke:#fff;stroke-miterlimit:10"></line><line x1="530.9" y1="207.78" x2="618.11" y2="207.78" style="fill:none;stroke:#fff;stroke-miterlimit:10"></line><line x1="530.9" y1="216.89" x2="618.11" y2="216.89" style="fill:none;stroke:#fff;stroke-miterlimit:10"></line><line x1="530.9" y1="226" x2="618.11" y2="226" style="fill:none;stroke:#fff;stroke-miterlimit:10"></line><line x1="530.9" y1="235.11" x2="618.11" y2="235.11" style="fill:none;stroke:#fff;stroke-miterlimit:10"></line><line x1="530.9" y1="244.21" x2="618.11" y2="244.21" style="fill:none;stroke:#fff;stroke-miterlimit:10"></line><line x1="530.9" y1="253.32" x2="618.11" y2="253.32" style="fill:none;stroke:#fff;stroke-miterlimit:10"></line><line x1="530.9" y1="262.43" x2="618.11" y2="262.43" style="fill:none;stroke:#fff;stroke-miterlimit:10"></line><line x1="530.9" y1="271.54" x2="618.11" y2="271.54" style="fill:none;stroke:#fff;stroke-miterlimit:10"></line><line x1="530.9" y1="280.65" x2="618.11" y2="280.65" style="fill:none;stroke:#fff;stroke-miterlimit:10"></line><line x1="530.9" y1="289.76" x2="618.11" y2="289.76" style="fill:none;stroke:#fff;stroke-miterlimit:10"></line><line x1="543.51" y1="285.54" x2="555.84" y2="285.54" style="fill:none;stroke:#757575;stroke-miterlimit:10"></line><line x1="562.78" y1="285.54" x2="575.11" y2="285.54" style="fill:none;stroke:#757575;stroke-miterlimit:10"></line><line x1="582.05" y1="285.54" x2="594.38" y2="285.54" style="fill:none;stroke:#757575;stroke-miterlimit:10"></line><line x1="601.31" y1="285.54" x2="613.64" y2="285.54" style="fill:none;stroke:#757575;stroke-miterlimit:10"></line><polygon points="534.41 283.16 532.15 287.08 536.68 287.08 534.41 283.16" style="fill:#fff"></polygon><line x1="543.51" y1="294.65" x2="555.84" y2="294.65" style="fill:none;stroke:#757575;stroke-miterlimit:10"></line><line x1="562.78" y1="294.65" x2="575.11" y2="294.65" style="fill:none;stroke:#757575;stroke-miterlimit:10"></line><line x1="582.05" y1="294.65" x2="594.38" y2="294.65" style="fill:none;stroke:#757575;stroke-miterlimit:10"></line><line x1="601.31" y1="294.65" x2="613.64" y2="294.65" style="fill:none;stroke:#757575;stroke-miterlimit:10"></line><polygon points="534.41 296.19 536.68 292.26 532.15 292.26 534.41 296.19" style="fill:#ED1B24"></polygon><path d="M511.72,333.67c0-1.55.71-2.39,2.21-2.39s2.15.84,2.15,2.31v.24h-1.37v-.33c0-.66-.28-.91-.74-.91s-.8.25-.8,1.13v1.68a1.36,1.36,0,0,1,1.33-.81c1.07,0,1.61.75,1.61,2.1v1.68a2.2,2.2,0,1,1-4.39,0Zm1.45,3.14v1.65c0,.66.28.9.74.9s.75-.24.75-.9v-1.65c0-.66-.29-.91-.75-.91S513.17,336.15,513.17,336.81Z" style="fill:#263238"></path><path d="M516.9,333.59a2.2,2.2,0,1,1,4.39,0v4.78a2.2,2.2,0,1,1-4.39,0Zm1.44,4.87c0,.66.29.91.75.91s.75-.25.75-.91v-5c0-.66-.29-.91-.75-.91s-.75.25-.75.91Z" style="fill:#263238"></path><path d="M522.14,332.79a1.4,1.4,0,1,1,2.79,0v3a1.4,1.4,0,1,1-2.79,0Zm.92,3.09c0,.4.17.57.47.57s.48-.17.48-.57v-3.16c0-.41-.19-.58-.48-.58s-.47.17-.47.58Zm4.1-4.5H528l-3.62,9.2h-.86Zm-.46,4.77a1.4,1.4,0,1,1,2.79,0v3a1.4,1.4,0,1,1-2.79,0Zm.92,3.09c0,.41.17.58.47.58s.48-.17.48-.58v-3.16c0-.4-.19-.57-.48-.57s-.47.17-.47.57Z" style="fill:#263238"></path><path d="M514.6,348.09c0-.83-.29-1-.75-1s-.75.24-.75.9v.59h-1.37V348a2,2,0,0,1,2.16-2.31c1.42,0,2.15.84,2.15,2.31v.24a1.79,1.79,0,0,1-1,1.89,1.88,1.88,0,0,1,1,1.93v.73c0,1.47-.73,2.31-2.15,2.31a2,2,0,0,1-2.16-2.31v-.77h1.37v.86c0,.65.29.9.75.9s.75-.22.75-1v-.73c0-.85-.29-1.17-1-1.17h-.48v-1.31h.56c.54,0,.87-.24.87-1Z" style="fill:#263238"></path><path d="M516.9,348a2.2,2.2,0,1,1,4.39,0v4.79a2.2,2.2,0,1,1-4.39,0Zm1.44,4.88c0,.65.29.9.75.9s.75-.25.75-.9v-5c0-.66-.29-.9-.75-.9s-.75.24-.75.9Z" style="fill:#263238"></path><path d="M522.14,347.23a1.4,1.4,0,1,1,2.79,0v3a1.4,1.4,0,1,1-2.79,0Zm.92,3.09c0,.41.17.58.47.58s.48-.17.48-.58v-3.15c0-.41-.19-.58-.48-.58s-.47.17-.47.58Zm4.1-4.49H528L524.39,355h-.86Zm-.46,4.76a1.4,1.4,0,1,1,2.79,0v3a1.4,1.4,0,1,1-2.79,0Zm.92,3.09c0,.41.17.58.47.58s.48-.17.48-.58v-3.15c0-.41-.19-.58-.48-.58s-.47.17-.47.58Z" style="fill:#263238"></path><path d="M513.93,361.48c-.46,0-.75.25-.75.91v1h-1.37v-.89a2,2,0,0,1,2.16-2.31c1.41,0,2.15.84,2.15,2.31,0,2.89-2.88,4-2.88,5.48a.62.62,0,0,0,0,.19H516v1.32h-4.18v-1.13c0-2.71,2.87-3.16,2.87-5.81C514.68,361.7,514.39,361.48,513.93,361.48Z" style="fill:#263238"></path><path d="M516.9,362.48a2.2,2.2,0,1,1,4.39,0v4.78a2.2,2.2,0,1,1-4.39,0Zm1.44,4.87c0,.66.29.91.75.91s.75-.25.75-.91v-5c0-.66-.29-.91-.75-.91s-.75.25-.75.91Z" style="fill:#263238"></path><path d="M522.14,361.68a1.4,1.4,0,1,1,2.79,0v3a1.4,1.4,0,1,1-2.79,0Zm.92,3.08c0,.41.17.58.47.58s.48-.17.48-.58v-3.15c0-.41-.19-.58-.48-.58s-.47.17-.47.58Zm4.1-4.49H528l-3.62,9.2h-.86ZM526.7,365a1.4,1.4,0,1,1,2.79,0v3a1.4,1.4,0,1,1-2.79,0Zm.92,3.09c0,.41.17.58.47.58s.48-.17.48-.58V365c0-.4-.19-.57-.48-.57s-.47.17-.47.57Z" style="fill:#263238"></path><path d="M450.37,370.91a22.52,22.52,0,1,1,26.36-36.43" style="fill:none;stroke:#263238;stroke-linejoin:round;stroke-width:6px"></path><path d="M480.48,365.62a22.54,22.54,0,0,1-30.11,5.29" style="fill:none;stroke:#757575;stroke-linejoin:round;stroke-width:6px"></path><path d="M476.73,334.48a22.52,22.52,0,0,1,3.75,31.14" style="fill:none;stroke:#ED1B24;stroke-linejoin:round;stroke-width:6px"></path><circle cx="501.65" cy="336.56" r="3.82" style="fill:#263238"></circle><circle cx="501.65" cy="350.58" r="3.82" style="fill:#c4f0d1"></circle><circle cx="501.65" cy="364.6" r="3.82" style="fill:#757575"></circle><rect x="443" y="312.14" width="88.43" height="3.03" style="fill:#ccc"></rect><line x1="242.39" y1="322.17" x2="418.64" y2="322.17" style="fill:none;stroke:#ccc;stroke-linecap:round;stroke-linejoin:round"></line><line x1="242.39" y1="330.42" x2="418.64" y2="330.42" style="fill:none;stroke:#ccc;stroke-linecap:round;stroke-linejoin:round"></line><line x1="242.39" y1="338.67" x2="418.64" y2="338.67" style="fill:none;stroke:#ccc;stroke-linecap:round;stroke-linejoin:round"></line><line x1="242.39" y1="346.92" x2="418.64" y2="346.92" style="fill:none;stroke:#ccc;stroke-linecap:round;stroke-linejoin:round"></line><line x1="242.39" y1="355.17" x2="418.64" y2="355.17" style="fill:none;stroke:#ccc;stroke-linecap:round;stroke-linejoin:round"></line><line x1="242.39" y1="363.42" x2="418.64" y2="363.42" style="fill:none;stroke:#ccc;stroke-linecap:round;stroke-linejoin:round"></line><line x1="242.39" y1="371.67" x2="418.64" y2="371.67" style="fill:none;stroke:#ccc;stroke-linecap:round;stroke-linejoin:round"></line><line x1="242.39" y1="379.92" x2="418.64" y2="379.92" style="fill:none;stroke:#ccc;stroke-linecap:round;stroke-linejoin:round"></line><line x1="229.9" y1="322.17" x2="238.39" y2="322.17" style="fill:none;stroke:#ccc;stroke-linecap:round;stroke-linejoin:round"></line><line x1="229.9" y1="330.42" x2="238.39" y2="330.42" style="fill:none;stroke:#ccc;stroke-linecap:round;stroke-linejoin:round"></line><line x1="229.9" y1="338.67" x2="238.39" y2="338.67" style="fill:none;stroke:#ccc;stroke-linecap:round;stroke-linejoin:round"></line><line x1="229.9" y1="346.92" x2="238.39" y2="346.92" style="fill:none;stroke:#ccc;stroke-linecap:round;stroke-linejoin:round"></line><line x1="229.9" y1="355.17" x2="238.39" y2="355.17" style="fill:none;stroke:#ccc;stroke-linecap:round;stroke-linejoin:round"></line><line x1="229.9" y1="363.42" x2="238.39" y2="363.42" style="fill:none;stroke:#ccc;stroke-linecap:round;stroke-linejoin:round"></line><line x1="229.9" y1="371.67" x2="238.39" y2="371.67" style="fill:none;stroke:#ccc;stroke-linecap:round;stroke-linejoin:round"></line><line x1="229.9" y1="379.92" x2="238.39" y2="379.92" style="fill:none;stroke:#ccc;stroke-linecap:round;stroke-linejoin:round"></line><polyline points="245.52 341.16 247.62 339.29 248.79 342.1 251.59 340.23 252.53 342.57 255.1 335.79 256.27 337.89 256.97 342.33 259.54 343.27 260.71 347.24 262.35 348.88 263.75 345.6 267.02 352.38 268.42 351.91 271.46 369.21 272.63 366.64 274.73 371.78 278 351.68 280.81 356.35 283.15 351.91 284.78 355.65 286.88 353.78 288.52 357.76 292.26 353.78 293.9 358.93 297.63 360.8 299.5 356.35 301.38 356.12 303.01 353.32 304.65 353.32 305.81 360.09 307.69 353.08 310.02 352.62 312.36 350.98 314.46 352.38 316.1 358.69 317.73 357.52 320.54 362.2 322.17 359.39 323.58 362.2 324.75 361.26 326.62 361.73 330.12 357.06 332.46 359.63 334.09 354.95 335.96 356.35 337.83 345.14 339.24 346.77 342.27 336.26 343.44 336.26 344.14 331.11 346.48 330.88 347.41 325.74 349.75 332.05 351.15 329.25 352.79 339.76 354.89 340.46 356.06 336.96 360.04 334.15 362.14 339.29 362.37 348.41 365.18 349.81 367.75 345.14 369.85 345.84 372.42 345.6 374.06 348.88 375.93 344.44 377.33 344.44 381.77 354.49 382.94 350.98 384.81 351.21 387.14 356.82 389.71 352.85 391.58 333.92 394.15 336.96 395.09 322 397.43 324.8 398.6 332.75 401.4 331.58 403.5 338.13 405.14 338.83 406.07 350.98 407.48 348.18 408.18 344.9 411.92 345.84 413.55 344.9 416.59 349.11" style="fill:none;stroke:#ED1B24;stroke-miterlimit:10;stroke-width:2px"></polyline><rect x="230.84" y="307.59" width="21" height="10.64" style="fill:#fff;stroke:#263238;stroke-linecap:round;stroke-linejoin:round"></rect><path d="M251.84,307.59v2.53a2.53,2.53,0,0,1-2.53-2.53Z" style="fill:#fff;stroke:#263238;stroke-linecap:round;stroke-linejoin:round"></path><path d="M249.33,318.23c0-.11,0-.22,0-.34a2.53,2.53,0,0,1,2.53-2.53" style="fill:#fff;stroke:#263238;stroke-linecap:round;stroke-linejoin:round"></path><path d="M230.84,310.12h.07a2.53,2.53,0,0,0,2.53-2.53" style="fill:#fff;stroke:#263238;stroke-linecap:round;stroke-linejoin:round"></path><path d="M233.44,317.89c0,.12,0,.23,0,.34h-2.58v-2.87h.07A2.53,2.53,0,0,1,233.44,317.89Z" style="fill:#fff;stroke:#263238;stroke-linecap:round;stroke-linejoin:round"></path><path d="M244.62,312.91a3.28,3.28,0,1,0-3.28,3.28A3.28,3.28,0,0,0,244.62,312.91Z" style="fill:#fff;stroke:#263238;stroke-linecap:round;stroke-linejoin:round"></path><path d="M241.07,310.87v-.31h.54v.31c.46.09.7.45.7,1V312h-.62v-.18c0-.29-.12-.41-.33-.41s-.32.12-.32.41c0,.86,1.27.9,1.27,2.09a.92.92,0,0,1-.7,1v.3h-.54V315a.92.92,0,0,1-.71-1v-.28H241V314c0,.29.13.4.34.4s.34-.11.34-.4c0-.86-1.28-.9-1.28-2.09A.91.91,0,0,1,241.07,310.87Z" style="fill:#263238"></path><rect x="258.27" y="312.14" width="88.43" height="3.03" style="fill:#ccc"></rect><rect x="549.23" y="321.39" width="69.25" height="6.6" style="fill:#ccc"></rect><rect x="549.23" y="321.39" width="22.09" height="6.6" style="fill:#ED1B24"></rect><rect x="549.23" y="338.45" width="69.25" height="6.6" style="fill:#ccc"></rect><rect x="549.23" y="338.45" width="46.31" height="6.6" style="fill:#ED1B24"></rect><rect x="549.23" y="355.51" width="69.25" height="6.6" style="fill:#ccc"></rect><rect x="549.23" y="355.51" width="9.77" height="6.6" style="fill:#ED1B24"></rect><rect x="549.23" y="372.56" width="69.25" height="6.6" style="fill:#ccc"></rect><rect x="549.23" y="372.56" width="60.75" height="6.6" style="fill:#ED1B24"></rect><rect x="548.99" y="312.14" width="69.04" height="3.03" style="fill:#ccc"></rect></g></svg>