<svg width="38" height="34" viewBox="0 0 38 34" fill="none" xmlns="http://www.w3.org/2000/svg">
<g clip-path="url(#clip0_55_573)">
<path d="M35.3481 10.3545C31.6772 10.3545 28.3153 10.3545 24.957 10.3545C22.3197 10.3545 19.6824 10.4126 17.0525 10.3001C16.5007 10.2783 15.9784 9.62841 15.4414 9.26536C15.9931 8.866 16.5412 8.12537 17.1003 8.11811C23.4747 8.0346 29.8491 8.0818 36.2235 8.05639C37.7058 8.04913 38.2723 8.6409 37.875 10.0713C36.7789 14.0395 35.6681 18.0004 34.5977 21.9759C34.3071 23.0469 33.6487 23.3809 32.5784 23.3773C24.6701 23.3519 16.7656 23.3446 8.85732 23.3809C7.52579 23.3882 7.0513 22.7819 6.82325 21.5874C5.9184 16.8968 4.89217 12.2279 4.02042 7.52996C3.71145 5.85265 3.13396 4.44037 1.75462 3.3621C1.14035 2.88287 0.526086 2.3165 0.128835 1.65938C-0.0845039 1.30358 -0.0219736 0.508495 0.250217 0.225313C0.49666 -0.032455 1.43094 -0.0832825 1.66266 0.152703C3.45029 1.9716 5.7492 3.31127 6.18323 6.27016C6.83428 10.6885 7.94144 15.0379 8.76169 19.4345C8.98974 20.658 9.43113 21.1663 10.7737 21.1554C17.4534 21.0937 24.1368 21.1009 30.8165 21.1517C32.0119 21.159 32.5489 20.7814 32.8322 19.6197C33.5678 16.6354 34.4359 13.6837 35.3481 10.3545Z" fill="black"/>
<path d="M32.0229 29.3238C32.0229 32.0359 30.0072 34.0181 27.2742 33.9964C24.5781 33.9746 22.5256 31.8906 22.5771 29.2367C22.6286 26.6409 24.6406 24.6804 27.2742 24.6622C30.0293 24.6441 32.0229 26.6009 32.0229 29.3238ZM27.1087 31.6764C28.6536 31.6692 29.8417 30.511 29.7129 29.2295C29.5732 27.8607 28.7676 27.0293 27.3221 26.9858C25.9758 26.9458 24.8576 28.0858 24.9643 29.4219C25.0783 30.8233 25.917 31.5639 27.1087 31.6764Z" fill="black"/>
<path d="M18.8658 29.2949C18.8805 31.9634 16.817 34.0146 14.1282 34.0001C11.4541 33.9856 9.37587 31.9162 9.39058 29.2732C9.40162 26.739 11.4651 24.7023 14.0546 24.666C16.7434 24.6297 18.851 26.6592 18.8658 29.2949ZM16.5485 29.3349C16.5558 28.1186 15.4854 27.015 14.2422 26.9641C12.9107 26.906 11.7005 28.0061 11.752 29.3131C11.8109 30.7254 12.609 31.5459 14.0399 31.6621C15.3935 31.7673 16.5411 30.6673 16.5485 29.3349Z" fill="black"/>
</g>
<defs>
<clipPath id="clip0_55_573">
<rect width="38" height="34" fill="white"/>
</clipPath>
</defs>
</svg>
